<?xml version="1.0"?>
<svg xmlns:rdf="http://www.w3.org/1999/02/22-rdf-syntax-ns#" xmlns="http://www.w3.org/2000/svg" xmlns:cc="http://web.resource.org/cc/" xmlns:dc="http://purl.org/dc/elements/1.1/" id="svg0" viewBox="0 0 372.87 449.82">
 <g id="layer1" stroke="#000" transform="translate(-195.26 -55.636)">
  <path id="path0" d="m265.67 333.13c-9.3612 5.6167-23.234 14.706-23.234 14.142 0-16.248 40.115-50.508 31.315-50.508-4.9988 0-30.946 12.027-28.284 4.0406 3.7603-11.281 12.753-22.855 21.213-31.315 1.5246-1.5246 7.2068-4.0406 5.0508-4.0406-9.9819 0-43.577 16.022-51.518 8.0812-2.0369-2.0369 38.995-26.869 33.335-28.284-10.788-2.6971-44.527-1.0904-51.518-8.0812-2.5858-2.5858 51.106-23.646 45.457-29.294-10.598-10.598-44.158-5.4834-51.518-20.203-4.0874-8.1747 51.831-19.506 56.569-24.244 2.5054-2.5054-33.534-22.024-32.325-23.234 12.578-12.578 73.6-3.1716 46.467-30.305-3.3043-3.3043-8.9124-9.4438-11.112-14.142-3.2792-7.0052 33.428 22.13 39.396 16.162 9.2034-9.2034 7.6814-31.186 15.152-45.457 2.4219-4.6264 2.802 35.355 8.0812 35.355 13.657 0 29.747-31.797 44.447-44.447 10.79-9.2854-8.0378 36.409-2.0203 42.426 7.0513 7.0513 32.36-27.878 46.467-39.396 10.608-8.6607-3.9688 34.382-3.9688 42.232 0 9.0248 79.64-49.999 61.283-25.142-10.413 14.101-26.159 43.848-22.234 47.773 6.4967 6.4967 92.384-48.542 69.671-17.897-6.2275 8.4022-25.509 29.957-32.213 46.467-3.2613 8.0315 84.118-40.687 62.712-17.428-8.2094 8.92-44.209 45.133-36.499 48.988 8.3363 4.1682 69.752-9.0218 51.64 2.612-6.0452 3.8831-40.969 34.64-40.182 35.427 8.5992 8.5992 62.256 2.1599 42.6 16.418-13.287 9.6378-43.786 30.819-38.631 33.57 14.548 7.7619 17.208 7.2634 37.293 8.4786 29.279 1.7714-34.894 30.332-31.488 34.427 3.5308 4.2451 15.352 13.658 31.784 15.867 31.25 4.2009-31.211 21.381-29.814 22.285 12.696 8.2143 49.296 8.1723 29.569 16.04-10.529 4.1994-32.925 17.568-35.284 22.285-2.8731 5.7461 19.618 13.264 27.202 17.111 15.155 7.688-31.641 9.8363-35.355 12.122-13.935 8.5745 55.792 31.687 2.2549 22.764-8.9524-1.4921-44.71-14.157-119.14-74.488-97.01-99.65-116.95-46.61-132.61-37.17z" stroke-width="1px" fill="#c969ff"/>
  <path id="path1" d="m447.5 267.47c-61.043 25.001-134.51 31.921-161.12-17.173-14.903-35.688-13.897-96.049 9.5964-122.23 14.51-14.51 17.094-17.891 44.447-21.213 28.259-2.9455 62.515 17.934 80.812 35.355 55.528 54.229 107.08 153.25 86.873 231.32-8.8338 26.501-18.523 58.93-39.396 79.802-44.508 44.508-118.91 45.322-143.44-28.284-16.601-48.413-26.225-97.451-4.5457-145.21" stroke-width="1px" fill="#fff"/>
  <path id="path2" d="m311.13 236.16c0.0238 0.86769 23.599 56.203 40.406 39.396 9.2052-9.2052-36.691-33.204-40.406-39.396z" stroke-width="1px" fill="#f00"/>
  <path id="path3" d="m303.05 204.84c-46.878-97.406-82.978 16.596 0 0z" stroke-width="1px" fill="#f0f"/>
  <path id="path4" d="m298.88 195.88c14.65-24.092 51.879-7.7383 60.735 9.9753" stroke-width="1px" fill="none"/>
  <path id="path5" d="m346.48 191.84c20.73 0.90431 28.062-76.699-5.7038-63.654-7.0233 2.7134-5.4294 15.024-10.459 24.132-3.2959 5.9684-1.8263-18.959-10.219-23.601-27.537-11.843-27.18 48.781-12.51 57.946" stroke-width="1px" fill="none"/>
  <path id="path6" d="m344.99 459.94c-54.429-14.167-57.414 59.544-6.0609 42.426 10.405-3.4682 24.617-21.188 33.162-22.897" stroke-width="1px" fill="none"/>
  <path id="path7" d="m455.36 465.41c48.175-24.547 52.783 53.287-1.0102 35.355-7.8566-2.6189-26.585-13.692-29.846-20.214" stroke-width="1px" fill="none"/>
  <path id="path8" d="m309.74 315.46c-14.803 1.479-41.058 82.307-17.804 105.56 10.501 10.501 30.986-3.7871 25.315-21.397" stroke-width="1px" fill="none"/>
  <path id="path9" d="m480.36 313.93c26.317 17.113 22.796 51.779 10.85 78-20.08 41.034-62.071 34.379-45.675-8.4743 7.7741-20.319 8.613-43.781 12.061-64.466" stroke-width="1px" fill="none"/>
  <path id="path10" stroke-linejoin="round" d="m322.14 160.76a6.25 14.107 0 1 1 -12.5 0 6.25 14.107 0 1 1 12.5 0z" stroke-linecap="round" fill="#00f"/>
  <path id="path11" stroke-linejoin="round" d="m352.46 161.65a6.7424 15.227 0 1 1 -13.485 0 6.7424 15.227 0 1 1 13.485 0z" stroke-linecap="round" fill="#00f"/>
  <path id="path12" stroke-linejoin="round" d="m172.73 376.08a5.0455 5.2854 0 1 1 -10.091 0 5.0455 5.2854 0 1 1 10.091 0z" transform="translate(195.26 55.636)" stroke-linecap="round" fill="none"/>
  <path id="path13" d="m240.42 102.64c0.15035-6.0282 0.23375-14.125 6.566-17.485 14.08-7.4253 29.05 10.958 12.627 20.961-4.9281 2.4641-12.125 0.31591-15.449 0.98083" transform="translate(195.26 55.636)" stroke-width="1px" fill="#fff"/>
  <path id="path14" d="m245.97 99.301c7.3856-19.465 24.826 1.5504 1.7678 2.7779" transform="translate(195.26 55.636)" stroke-width="1px" fill="none"/>
 </g>
 <metadata>
  <rdf:RDF>
   <cc:Work>
    <dc:format>image/svg+xml</dc:format>
    <dc:type rdf:resource="http://purl.org/dc/dcmitype/StillImage"/>
    <cc:license rdf:resource="http://creativecommons.org/licenses/publicdomain/"/>
    <dc:publisher>
     <cc:Agent rdf:about="http://openclipart.org/">
      <dc:title>Openclipart</dc:title>
     </cc:Agent>
    </dc:publisher>
   </cc:Work>
   <cc:License rdf:about="http://creativecommons.org/licenses/publicdomain/">
    <cc:permits rdf:resource="http://creativecommons.org/ns#Reproduction"/>
    <cc:permits rdf:resource="http://creativecommons.org/ns#Distribution"/>
    <cc:permits rdf:resource="http://creativecommons.org/ns#DerivativeWorks"/>
   </cc:License>
  </rdf:RDF>
 </metadata>
</svg>
